HIERARCHY
ROOT hip
{
  OFFSET 0.00112043 5.09927 -9.65472
  CHANNELS 6 Xposition Yposition Zposition Zrotation Xrotation Yrotation
  JOINT abdomen
  {
    OFFSET 0 -1.186 -1.5018
    CHANNELS 3 Zrotation Xrotation Yrotation
    JOINT abdomen2
    {
      OFFSET 0 9.964 0.2134
      CHANNELS 3 Zrotation Xrotation Yrotation
      JOINT chest
      {
        OFFSET 0 13.134 -3.2573
        CHANNELS 3 Zrotation Xrotation Yrotation
        JOINT neck
        {
          OFFSET 0 20.686 -1.6905
          CHANNELS 3 Zrotation Xrotation Yrotation
          JOINT head
          {
            OFFSET 0 7.238 -0.1237
            CHANNELS 3 Zrotation Xrotation Yrotation
            End Site
            {
              OFFSET 0 0 0
            }
          }
        }
        JOINT lCollar
        {
          OFFSET 1.7069 20.075 5.0056
          CHANNELS 3 Zrotation Xrotation Yrotation
          JOINT lShldr
          {
            OFFSET 13.6458 -0.047 -4.849
            CHANNELS 3 Zrotation Xrotation Yrotation
            JOINT lForeArm
            {
              OFFSET 28.3255 -0.9759 2.2888
              CHANNELS 3 Zrotation Xrotation Yrotation
              JOINT lHand
              {
                OFFSET 22.1583 -0.53 10.8316
                CHANNELS 3 Zrotation Xrotation Yrotation
                JOINT lThumb1
                {
                  OFFSET 0.786 0.112 2.5817
                  CHANNELS 3 Zrotation Xrotation Yrotation
                  JOINT lThumb2
                  {
                    OFFSET 0.3601 -0.878 4.2331
                    CHANNELS 3 Zrotation Xrotation Yrotation
                    JOINT lThumb2_End
                    {
                      OFFSET 1.8127 -1.216 2.2227
                      CHANNELS 3 Zrotation Xrotation Yrotation
                      End Site
                      {
                        OFFSET 0.0181 -0.0122 0.0222
                      }
                    }
                  }
                }
                JOINT lCarpal1
                {
                  OFFSET 0.9571 1.114 1.7695
                  CHANNELS 3 Zrotation Xrotation Yrotation
                  JOINT lIndex1
                  {
                    OFFSET 4.1246 0.487 4.1451
                    CHANNELS 3 Zrotation Xrotation Yrotation
                    JOINT lIndex2
                    {
                      OFFSET 3.4052 -1.454 2.7682
                      CHANNELS 3 Zrotation Xrotation Yrotation
                      JOINT lIndex2_End
                      {
                        OFFSET 1.4531 -1.795 1.2713
                        CHANNELS 3 Zrotation Xrotation Yrotation
                        End Site
                        {
                          OFFSET 0.0145 -0.0179 0.0127
                        }
                      }
                    }
                  }
                  JOINT lMid1
                  {
                    OFFSET 5.6954 0.21 2.1184
                    CHANNELS 3 Zrotation Xrotation Yrotation
                    JOINT lMid2
                    {
                      OFFSET 3.9766 -1.54 2.3863
                      CHANNELS 3 Zrotation Xrotation Yrotation
                      JOINT lMid2_End
                      {
                        OFFSET 1.4042 -1.926 1.125
                        CHANNELS 3 Zrotation Xrotation Yrotation
                        End Site
                        {
                          OFFSET 0.014 -0.0193 0.0113
                        }
                      }
                    }
                  }
                }
                JOINT lCarpal2
                {
                  OFFSET 2.0956 0.66 -0.3894
                  CHANNELS 3 Zrotation Xrotation Yrotation
                  JOINT lRing1
                  {
                    OFFSET 5.0395 -0.09 2.4971
                    CHANNELS 3 Zrotation Xrotation Yrotation
                    JOINT lRing2
                    {
                      OFFSET 3.7921 -1.552 1.4806
                      CHANNELS 3 Zrotation Xrotation Yrotation
                      JOINT lRing2_End
                      {
                        OFFSET 1.4655 -1.808 0.9609
                        CHANNELS 3 Zrotation Xrotation Yrotation
                        End Site
                        {
                          OFFSET 0.0147 -0.0181 0.0096
                        }
                      }
                    }
                  }
                  JOINT lPinky1
                  {
                    OFFSET 4.9141 -1.269 0.3591
                    CHANNELS 3 Zrotation Xrotation Yrotation
                    JOINT lPinky2
                    {
                      OFFSET 3.1477 -1.685 0.8462
                      CHANNELS 3 Zrotation Xrotation Yrotation
                      JOINT lPinky2_End
                      {
                        OFFSET 0.8055 -1.585 0.7955
                        CHANNELS 3 Zrotation Xrotation Yrotation
                        End Site
                        {
                          OFFSET 0.0081 -0.0158 0.008
                        }
                      }
                    }
                  }
                }
              }
            }
          }
        }
        JOINT rCollar
        {
          OFFSET -1.7069 20.075 5.0056
          CHANNELS 3 Zrotation Xrotation Yrotation
          JOINT rShldr
          {
            OFFSET -13.6458 -0.047 -4.849
            CHANNELS 3 Zrotation Xrotation Yrotation
            JOINT rForeArm
            {
              OFFSET -28.3255 -0.9759 2.2888
              CHANNELS 3 Zrotation Xrotation Yrotation
              JOINT rHand
              {
                OFFSET -22.1583 -0.53 10.8316
                CHANNELS 3 Zrotation Xrotation Yrotation
                JOINT rThumb1
                {
                  OFFSET -0.786 0.112 2.5817
                  CHANNELS 3 Zrotation Xrotation Yrotation
                  JOINT rThumb2
                  {
                    OFFSET -0.3601 -0.878 4.2331
                    CHANNELS 3 Zrotation Xrotation Yrotation
                    JOINT rThumb2_End
                    {
                      OFFSET -1.8127 -1.216 2.2227
                      CHANNELS 3 Zrotation Xrotation Yrotation
                      End Site
                      {
                        OFFSET -0.0181 -0.0122 0.0222
                      }
                    }
                  }
                }
                JOINT rCarpal1
                {
                  OFFSET -0.9571 1.114 1.7695
                  CHANNELS 3 Zrotation Xrotation Yrotation
                  JOINT rIndex1
                  {
                    OFFSET -4.1246 0.487 4.1451
                    CHANNELS 3 Zrotation Xrotation Yrotation
                    JOINT rIndex2
                    {
                      OFFSET -3.4052 -1.454 2.7682
                      CHANNELS 3 Zrotation Xrotation Yrotation
                      JOINT rIndex2_End
                      {
                        OFFSET -1.4531 -1.795 1.2713
                        CHANNELS 3 Zrotation Xrotation Yrotation
                        End Site
                        {
                          OFFSET -0.0145 -0.018 0.0127
                        }
                      }
                    }
                  }
                  JOINT rMid1
                  {
                    OFFSET -5.6954 0.21 2.1184
                    CHANNELS 3 Zrotation Xrotation Yrotation
                    JOINT rMid2
                    {
                      OFFSET -3.9766 -1.54 2.3863
                      CHANNELS 3 Zrotation Xrotation Yrotation
                      JOINT rMid2_End
                      {
                        OFFSET -1.4042 -1.926 1.125
                        CHANNELS 3 Zrotation Xrotation Yrotation
                        End Site
                        {
                          OFFSET -0.014 -0.0193 0.0113
                        }
                      }
                    }
                  }
                }
                JOINT rCarpal2
                {
                  OFFSET -2.0956 0.66 -0.3894
                  CHANNELS 3 Zrotation Xrotation Yrotation
                  JOINT rRing1
                  {
                    OFFSET -5.0395 -0.09 2.4971
                    CHANNELS 3 Zrotation Xrotation Yrotation
                    JOINT rRing2
                    {
                      OFFSET -3.7921 -1.552 1.4806
                      CHANNELS 3 Zrotation Xrotation Yrotation
                      JOINT rRing2_End
                      {
                        OFFSET -1.4655 -1.808 0.9609
                        CHANNELS 3 Zrotation Xrotation Yrotation
                        End Site
                        {
                          OFFSET -0.0147 -0.0181 0.0096
                        }
                      }
                    }
                  }
                  JOINT rPinky1
                  {
                    OFFSET -4.9141 -1.269 0.3592
                    CHANNELS 3 Zrotation Xrotation Yrotation
                    JOINT rPinky2
                    {
                      OFFSET -3.1477 -1.685 0.8462
                      CHANNELS 3 Zrotation Xrotation Yrotation
                      JOINT rPinky2_End
                      {
                        OFFSET -0.8055 -1.585 0.7955
                        CHANNELS 3 Zrotation Xrotation Yrotation
                        End Site
                        {
                          OFFSET -0.0081 -0.0158 0.008
                        }
                      }
                    }
                  }
                }
              }
            }
          }
        }
      }
    }
  }
  JOINT lThigh
  {
    OFFSET 8.367 -8.2066 0.5982
    CHANNELS 3 Zrotation Xrotation Yrotation
    JOINT lShin
    {
      OFFSET 2.1923 -43.463 -0.4932
      CHANNELS 3 Zrotation Xrotation Yrotation
      JOINT lFoot
      {
        OFFSET 0.7333 -45.8593 -2.6451
        CHANNELS 3 Zrotation Xrotation Yrotation
        End Site
        {
          OFFSET 2.6618 -4.2699 12.3931
        }
      }
    }
  }
  JOINT rThigh
  {
    OFFSET -8.367 -8.2066 0.5982
    CHANNELS 3 Zrotation Xrotation Yrotation
    JOINT rShin
    {
      OFFSET -2.1923 -43.463 -0.4931
      CHANNELS 3 Zrotation Xrotation Yrotation
      JOINT rFoot
      {
        OFFSET -0.7333 -45.8593 -2.6451
        CHANNELS 3 Zrotation Xrotation Yrotation
        End Site
        {
          OFFSET -2.6618 -4.2699 12.3931
        }
      }
    }
  }
}
MOTION
Frames:	4
Frame Time:	0.0333333
28.5678 5.28038 -26.3847 89.9846 76.9891 180 2.23371 -0.215641 -0.330364 4.46613 -0.444076 -0.652128 4.46612 -0.444081 -0.652111 -0.0125315 13.5884 0.000119775 -0.0395549 -5.55571 -0.00421091 -15.2949 -7.89255 -38.0068 -50.548 -14.3703 -13.0045 14.7272 -23.8706 -47.967 2.3482 0.15793 -1.70228 2.98177e-015 0 3.97569e-016 8.15308e-007 -7.08602e-010 2.37704e-007 8.15308e-007 -7.08605e-010 2.37704e-007 3.18055e-015 0 -0 -2.38542e-015 -3.18055e-015 5.96354e-015 8.15308e-007 -7.08608e-010 2.37704e-007 8.15308e-007 -7.08605e-010 2.37704e-007 -2.38542e-015 -3.18055e-015 5.96354e-015 8.15308e-007 -7.08608e-010 2.37704e-007 8.15308e-007 -7.08605e-010 2.37704e-007 3.18055e-015 0 -0 -2.38542e-015 -3.18055e-015 5.96354e-015 8.15308e-007 -7.08608e-010 2.37704e-007 8.15308e-007 -7.08605e-010 2.37704e-007 -2.38542e-015 -3.18055e-015 5.96354e-015 8.15308e-007 -7.08608e-010 2.37704e-007 8.15308e-007 -7.08605e-010 2.37704e-007 -23.0695 -15.1185 25.2045 36.6243 -16.3249 33.85 50.077 -27.7999 96.3648 36.3443 33.4338 -9.9119 -3.18055e-015 0 -1.27222e-014 -9.9393e-006 -5.55157e-006 -3.14336e-006 3.97472e-006 2.2232e-006 7.04283e-006 -3.18055e-015 0 -6.36111e-015 -3.18055e-015 9.54166e-015 7.95139e-015 -9.9393e-006 -5.55157e-006 -3.14336e-006 3.97472e-006 2.2232e-006 7.04283e-006 -3.18055e-015 9.54166e-015 7.95139e-015 -9.9393e-006 -5.55157e-006 -3.14336e-006 3.97472e-006 2.2232e-006 7.04283e-006 -3.18055e-015 0 -6.36111e-015 -3.18055e-015 9.54166e-015 7.95139e-015 -9.9393e-006 -5.55157e-006 -3.14336e-006 3.97472e-006 2.2232e-006 7.04283e-006 -3.18055e-015 9.54166e-015 7.95139e-015 -9.9393e-006 -5.55157e-006 -3.14336e-006 3.97472e-006 2.2232e-006 7.04283e-006 -11.4953 -73.3679 -7.7468 3.89726 40.7157 -1.27307 5.04913 8.81244 0.212036 12.3792 -28.4172 4.89687 5.11392 16.6947 -25.608 -8.39515 40.7252 3.66709 
28.5602 5.28215 -26.4908 89.9846 76.9891 180 2.23316 -0.274969 -0.32265 4.46484 -0.56231 -0.63434 4.46485 -0.56229 -0.634349 -0.011947 14.3837 -4.2936e-006 -0.0395001 -4.1825 -0.00452328 -15.4072 -7.7046 -38.3034 -50.2805 -14.4923 -12.8476 14.758 -23.9337 -47.7812 2.2265 0.15148 -1.61397 -8.15303e-007 7.727e-010 -2.37747e-007 -1.05987e-006 -3.68159e-007 1.5053e-006 -2.30923e-007 5.44278e-007 -1.12436e-007 -4.41391e-032 -3.18055e-015 -7.95139e-016 -8.15303e-007 7.72703e-010 -2.37747e-007 -1.05987e-006 -3.68159e-007 1.5053e-006 -2.30923e-007 5.44278e-007 -1.12436e-007 -8.15303e-007 7.72703e-010 -2.37747e-007 -1.05987e-006 -3.68159e-007 1.5053e-006 -2.30923e-007 5.44278e-007 -1.12436e-007 -4.41391e-032 -3.18055e-015 -7.95139e-016 -8.15303e-007 7.72703e-010 -2.37747e-007 -1.05987e-006 -3.68159e-007 1.5053e-006 -2.30923e-007 5.44278e-007 -1.12436e-007 -8.15303e-007 7.72703e-010 -2.37747e-007 -1.05987e-006 -3.68159e-007 1.5053e-006 -2.30923e-007 5.44278e-007 -1.12436e-007 -23.0392 -14.916 25.5779 36.4326 -16.5114 33.6874 50.2278 -28.0616 96.2912 36.4898 33.441 -9.98098 9.54166e-015 -3.18055e-015 3.18055e-015 -6.36111e-015 0 3.18055e-015 9.54166e-015 -3.18055e-015 3.18055e-015 9.54166e-015 0 -3.18055e-015 -6.36111e-015 6.36111e-015 1.27222e-014 -3.18055e-015 3.18055e-015 1.11319e-014 9.54166e-015 -6.36111e-015 4.77083e-015 -6.36111e-015 6.36111e-015 1.27222e-014 -3.18055e-015 3.18055e-015 1.11319e-014 9.54166e-015 -6.36111e-015 4.77083e-015 9.54166e-015 0 -3.18055e-015 -6.36111e-015 6.36111e-015 1.27222e-014 -3.18055e-015 3.18055e-015 1.11319e-014 9.54166e-015 -6.36111e-015 4.77083e-015 -6.36111e-015 6.36111e-015 1.27222e-014 -3.18055e-015 3.18055e-015 1.11319e-014 9.54166e-015 -6.36111e-015 4.77083e-015 -11.5021 -73.3683 -7.74748 3.97034 40.9216 -1.31875 5.05148 8.83327 0.211145 12.3915 -28.6838 4.87453 5.17721 17.2485 -25.6262 -8.30646 40.4853 3.62752 
28.5534 5.28371 -26.586 89.9846 76.9891 180 2.23273 -0.327937 -0.315718 4.46371 -0.667893 -0.618499 4.46371 -0.6679 -0.618461 -0.0126882 15.0971 0.000193709 -0.0394042 -2.94842 -0.00481044 -15.5072 -7.53549 -38.5688 -50.0403 -14.6011 -12.7063 14.7856 -23.99 -47.6152 2.11781 0.145546 -1.53512 -8.15298e-007 8.26935e-010 -2.37787e-007 1.07548e-007 7.19439e-007 1.75647e-006 -1.39842e-006 -5.43396e-007 -3.63663e-007 7.95139e-016 -6.36111e-015 3.97569e-016 -8.15298e-007 8.26941e-010 -2.37787e-007 1.07548e-007 7.19439e-007 1.75647e-006 -1.39842e-006 -5.43396e-007 -3.63663e-007 -8.15298e-007 8.26941e-010 -2.37787e-007 1.07548e-007 7.19439e-007 1.75647e-006 -1.39842e-006 -5.43396e-007 -3.63663e-007 7.95139e-016 -6.36111e-015 3.97569e-016 -8.15298e-007 8.26941e-010 -2.37787e-007 1.07548e-007 7.19439e-007 1.75647e-006 -1.39842e-006 -5.43396e-007 -3.63663e-007 -8.15298e-007 8.26941e-010 -2.37787e-007 1.07548e-007 7.19439e-007 1.75647e-006 -1.39842e-006 -5.43396e-007 -3.63663e-007 -23.0132 -14.7342 25.9123 36.2601 -16.6781 33.5408 50.363 -28.2965 96.226 36.6198 33.4473 -10.0427 -3.53113e-031 -3.18055e-015 -6.36111e-015 -3.18055e-015 0 3.18055e-015 -3.18055e-015 6.36111e-015 -0 -8.82781e-032 -3.18055e-015 -1.59028e-015 3.53113e-031 -3.18055e-015 6.36111e-015 6.36111e-015 6.36111e-015 -4.77083e-015 6.36111e-015 3.18055e-015 -3.18055e-015 3.53113e-031 -3.18055e-015 6.36111e-015 6.36111e-015 6.36111e-015 -4.77083e-015 6.36111e-015 3.18055e-015 -3.18055e-015 -8.82781e-032 -3.18055e-015 -1.59028e-015 3.53113e-031 -3.18055e-015 6.36111e-015 6.36111e-015 6.36111e-015 -4.77083e-015 6.36111e-015 3.18055e-015 -3.18055e-015 3.53113e-031 -3.18055e-015 6.36111e-015 6.36111e-015 6.36111e-015 -4.77083e-015 6.36111e-015 3.18055e-015 -3.18055e-015 -11.5084 -73.3688 -7.74826 4.03603 41.1057 -1.35994 5.05359 8.85173 0.210318 12.4002 -28.922 4.85394 5.23809 17.7451 -25.6447 -8.23023 40.2705 3.59378 
28.5465 5.28524 -26.6812 89.9846 76.9891 180 2.23228 -0.380893 -0.308842 4.46265 -0.773537 -0.602593 4.46265 -0.773516 -0.602597 -0.0123787 15.8111 4.12809e-005 -0.039281 -1.71217 -0.00399803 -15.6064 -7.36586 -38.8339 -49.7996 -14.7093 -12.5645 14.8135 -24.0463 -47.4491 2.00912 0.139482 -1.45629 -1.29445e-006 -3.08521e-006 1.74293e-006 -8.15293e-007 8.76176e-010 -2.37828e-007 -1.29445e-006 -3.08521e-006 1.74293e-006 -9.93923e-016 3.18055e-015 3.97569e-016 -1.29445e-006 -3.08521e-006 1.74293e-006 -8.15293e-007 8.76176e-010 -2.37828e-007 -1.29445e-006 -3.08521e-006 1.74293e-006 -1.29445e-006 -3.08521e-006 1.74293e-006 -8.15293e-007 8.76176e-010 -2.37828e-007 -1.29445e-006 -3.08521e-006 1.74293e-006 -9.93923e-016 3.18055e-015 3.97569e-016 -1.29445e-006 -3.08521e-006 1.74293e-006 -8.15293e-007 8.76176e-010 -2.37828e-007 -1.29445e-006 -3.08521e-006 1.74293e-006 -1.29445e-006 -3.08521e-006 1.74293e-006 -8.15293e-007 8.76176e-010 -2.37828e-007 -1.29445e-006 -3.08521e-006 1.74293e-006 -22.9884 -14.5522 26.2465 36.087 -16.8444 33.3936 50.4983 -28.5315 96.1612 36.7497 33.4534 -10.1044 -5.29669e-031 9.54166e-015 3.18055e-015 -6.36111e-015 0 -1.59028e-015 -3.18055e-015 3.18055e-015 1.59028e-015 3.18055e-015 6.36111e-015 1.59028e-015 -3.18055e-015 6.36111e-015 -1.59028e-015 -9.54166e-015 0 1.59028e-015 -3.18055e-015 3.18055e-015 -0 -3.18055e-015 6.36111e-015 -1.59028e-015 -9.54166e-015 0 1.59028e-015 -3.18055e-015 3.18055e-015 -0 3.18055e-015 6.36111e-015 1.59028e-015 -3.18055e-015 6.36111e-015 -1.59028e-015 -9.54166e-015 0 1.59028e-015 -3.18055e-015 3.18055e-015 -0 -3.18055e-015 6.36111e-015 -1.59028e-015 -9.54166e-015 0 1.59028e-015 -3.18055e-015 3.18055e-015 -0 -11.5148 -73.3695 -7.74909 4.10202 41.29 -1.4015 5.05576 8.87012 0.209523 12.4071 -29.1606 4.83293 5.30211 18.242 -25.6652 -8.15594 40.0552 3.56111 
